<?xml version="1.0" encoding="UTF-8"?>
<svg width="453px" height="135px" viewBox="0 0 453 135" version="1.1" xmlns="http://www.w3.org/2000/svg" xmlns:xlink="http://www.w3.org/1999/xlink">
    <!-- Generator: Sketch 64 (93537) - https://sketch.com -->
    <title>Fill 3</title>
    <desc>Created with Sketch.</desc>
    <g id="Page-1" stroke="none" stroke-width="1" fill="none" fill-rule="evenodd">
        <g id="Artboard-Copy" transform="translate(-728.000000, -136.000000)" fill="#FFFFFF">
            <g id="Group-12">
                <g id="Group-11" transform="translate(82.000000, 136.244000)">
                    <path d="M724.5969,86.5621 C719.7209,83.0161 712.8759,84.1021 709.3359,88.9851 L696.4819,106.6771 C692.9369,111.5551 694.0129,118.3851 698.8929,121.9461 C703.7839,125.5011 710.6209,124.4081 714.1669,119.5211 L727.0279,101.8361 C730.5679,96.9531 729.4879,90.1151 724.5969,86.5621 L724.5969,86.5621 Z M744.7049,114.6831 C739.8289,111.1411 732.9839,112.2271 729.4409,117.1041 C725.8959,121.9881 726.9719,128.8261 731.8549,132.3731 C736.7459,135.9271 743.5799,134.8411 747.1299,129.9511 C750.6769,125.0741 749.5899,118.2311 744.7049,114.6831 L744.7049,114.6831 Z M666.6989,17.4721 C670.2519,12.5941 669.1659,5.7511 664.2919,2.2051 C659.3939,-1.3419 652.5599,-0.2489 649.0179,4.6141 C645.4679,9.5061 646.5499,16.3421 651.4339,19.8881 C656.3119,23.4391 663.1549,22.3561 666.6989,17.4721 L666.6989,17.4721 Z M730.1919,23.0811 C725.3159,19.5211 718.4779,20.6141 714.9319,25.4921 L663.5269,96.2431 C659.9739,101.1211 661.0609,107.9661 665.9369,111.5081 C670.8269,115.0581 677.6619,113.9811 681.2079,109.0911 L732.6169,38.3391 C736.1699,33.4541 735.0829,26.6241 730.1919,23.0811 L730.1919,23.0811 Z M671.5429,48.0211 C676.4229,51.5671 683.2569,50.4741 686.8139,45.5871 L699.6579,27.9091 C703.2109,23.0241 702.1289,16.1871 697.2399,12.6421 C692.3569,9.0821 685.5229,10.1671 681.9769,15.0571 L669.1189,32.7431 C665.5759,37.6301 666.6459,44.4581 671.5429,48.0211 L671.5429,48.0211 Z M1098.8849,74.1551 C1098.8849,59.8061 1092.2439,47.9401 1074.0259,47.9401 C1065.9039,47.9401 1060.0789,50.3421 1056.1139,54.2741 C1052.1549,50.3421 1046.3249,47.9401 1038.1539,47.9401 C1020.0519,47.9401 1013.2999,59.8061 1013.2999,74.1551 L1013.2899,106.3611 C1013.2899,110.2331 1016.4079,113.3531 1020.1569,113.3531 C1024.0269,113.3531 1027.1469,110.2331 1027.1469,106.3611 L1027.1469,74.1551 C1027.1469,65.6671 1029.7919,60.4291 1038.1539,60.4291 C1046.6399,60.4291 1049.1589,65.6671 1049.1589,74.1551 L1049.1589,106.3611 C1049.1589,110.2331 1052.2809,113.3531 1056.0309,113.3531 C1059.9009,113.3531 1063.0209,110.2331 1063.0209,106.3611 L1063.0209,74.1551 C1063.0209,65.6671 1065.6599,60.4291 1074.0259,60.4291 C1082.5109,60.4291 1085.0329,65.6671 1085.0329,74.1551 L1085.0329,106.3611 C1085.0329,110.2331 1088.1479,113.3531 1091.9019,113.3531 C1095.7729,113.3531 1098.8899,110.2331 1098.8899,106.3611 L1098.8849,74.1551 Z M992.9659,47.9491 C989.0949,47.9491 985.9769,51.0621 985.9769,54.9391 L985.9769,87.1431 C985.9769,95.6261 982.2249,100.8681 973.8599,100.8681 C965.3749,100.8681 961.7549,95.6261 961.7549,87.1431 L961.7549,54.9391 C961.7549,51.0621 958.6389,47.9491 954.8879,47.9491 C951.0179,47.9491 947.9019,51.0621 947.9019,54.9391 L947.9049,87.1431 C947.9049,101.4941 955.6399,113.3531 973.8599,113.3531 C991.9599,113.3531 999.8329,101.4941 999.8329,87.1431 L999.8329,54.9391 C999.8329,51.0621 996.7139,47.9491 992.9659,47.9491 L992.9659,47.9491 Z M850.4199,72.4161 C850.4199,57.9301 842.7709,48.6941 825.1619,48.6941 L812.3459,48.6941 L812.3459,29.2191 C812.3459,25.3421 809.2299,22.2311 805.4779,22.2311 C801.6069,22.2311 798.4919,25.3421 798.4919,29.2191 L798.4939,87.1431 C798.4939,101.4941 806.2289,113.3531 824.4509,113.3531 C842.5499,113.3531 850.4229,101.4941 850.4229,87.1431 L850.4229,72.6651 L850.4199,72.6651 L850.4199,72.4161 Z M836.5659,87.1431 C836.5659,95.6261 832.8149,100.8681 824.4509,100.8681 C815.9639,100.8681 812.3459,95.6261 812.3459,87.1431 L812.3459,60.7991 L825.0469,60.7991 C835.2849,60.7991 836.5659,66.4191 836.5659,72.6651 L836.5659,87.1431 Z M938.5049,54.6801 C938.5049,50.3261 935.0149,48.6941 932.0179,48.6941 L897.4469,48.6941 C894.0729,48.6941 891.3279,51.3201 891.3279,54.6801 C891.3279,58.0611 894.0729,60.7991 897.4469,60.7991 L920.1599,60.7991 L890.7119,101.7421 C889.8349,102.9871 889.3419,104.4911 889.3419,105.8611 C889.3419,110.0981 892.8339,112.6001 895.7019,112.6001 L932.3989,112.6001 C935.7599,112.6001 938.5049,109.8511 938.5049,106.4801 C938.5049,103.1181 935.8929,100.3641 932.3989,100.3641 L907.6849,100.3641 L936.5119,60.3061 C938.0049,58.3131 938.5049,56.5641 938.5049,54.6801 L938.5049,54.6801 Z M870.3529,22.2311 C865.9889,22.2311 862.4879,25.7251 862.4879,30.0921 C862.4879,34.4511 865.9889,38.0791 870.3529,38.0791 C874.7269,38.0791 878.2219,34.4511 878.2219,30.0921 C878.2219,25.7251 874.7269,22.2311 870.3529,22.2311 L870.3529,22.2311 Z M870.3529,47.9491 C866.4819,47.9491 863.3629,51.0621 863.3629,54.8131 L863.3629,106.3611 C863.3629,110.2331 866.4819,113.3531 870.3529,113.3531 C874.2269,113.3531 877.3489,110.2331 877.3489,106.3611 L877.3489,54.8131 C877.3489,51.0621 874.2269,47.9491 870.3529,47.9491 L870.3529,47.9491 Z" id="Fill-3"></path>
                </g>
            </g>
        </g>
    </g>
</svg>